<svg id="visual" viewBox="0 0 800 200" width="800" height="200" xmlns="http://www.w3.org/2000/svg" xmlns:xlink="http://www.w3.org/1999/xlink" version="1.1"><rect x="0" y="0" width="800" height="200" fill="#ffffff"></rect><path d="M0 94L10.3 90.8C20.7 87.7 41.3 81.3 61.8 84.5C82.3 87.7 102.7 100.3 123.2 102.3C143.7 104.3 164.3 95.7 184.8 90.5C205.3 85.3 225.7 83.7 246.2 87.3C266.7 91 287.3 100 307.8 99.8C328.3 99.7 348.7 90.3 369.2 89.2C389.7 88 410.3 95 430.8 97.3C451.3 99.7 471.7 97.3 492.2 97C512.7 96.7 533.3 98.3 553.8 100C574.3 101.7 594.7 103.3 615.2 102C635.7 100.7 656.3 96.3 676.8 96.5C697.3 96.7 717.7 101.3 738.2 98.5C758.7 95.7 779.3 85.3 789.7 80.2L800 75L800 201L789.7 201C779.3 201 758.7 201 738.2 201C717.7 201 697.3 201 676.8 201C656.3 201 635.7 201 615.2 201C594.7 201 574.3 201 553.8 201C533.3 201 512.7 201 492.2 201C471.7 201 451.3 201 430.8 201C410.3 201 389.7 201 369.2 201C348.7 201 328.3 201 307.8 201C287.3 201 266.7 201 246.2 201C225.7 201 205.3 201 184.8 201C164.3 201 143.7 201 123.2 201C102.7 201 82.3 201 61.8 201C41.3 201 20.7 201 10.3 201L0 201Z" fill="#cdeaff"></path><path d="M0 107L10.3 110C20.7 113 41.3 119 61.8 118.3C82.3 117.7 102.7 110.3 123.2 107.3C143.7 104.3 164.3 105.7 184.8 108.8C205.3 112 225.7 117 246.2 121.3C266.7 125.7 287.3 129.3 307.8 130.2C328.3 131 348.7 129 369.2 124.7C389.7 120.3 410.3 113.7 430.8 110.3C451.3 107 471.7 107 492.2 108.2C512.7 109.3 533.3 111.7 553.8 111.8C574.3 112 594.7 110 615.2 109C635.7 108 656.3 108 676.8 109.7C697.3 111.3 717.7 114.7 738.2 116C758.7 117.3 779.3 116.7 789.7 116.3L800 116L800 201L789.7 201C779.3 201 758.7 201 738.2 201C717.7 201 697.3 201 676.8 201C656.3 201 635.7 201 615.2 201C594.7 201 574.3 201 553.8 201C533.3 201 512.7 201 492.2 201C471.7 201 451.3 201 430.8 201C410.3 201 389.7 201 369.2 201C348.7 201 328.3 201 307.8 201C287.3 201 266.7 201 246.2 201C225.7 201 205.3 201 184.8 201C164.3 201 143.7 201 123.2 201C102.7 201 82.3 201 61.8 201C41.3 201 20.7 201 10.3 201L0 201Z" fill="#a8d2f0"></path><path d="M0 137L10.3 135.7C20.7 134.3 41.3 131.7 61.8 130.3C82.3 129 102.7 129 123.2 129.7C143.7 130.3 164.3 131.7 184.8 133.8C205.3 136 225.7 139 246.2 141C266.7 143 287.3 144 307.8 142.7C328.3 141.3 348.7 137.7 369.2 139.7C389.7 141.7 410.3 149.3 430.8 153.5C451.3 157.7 471.7 158.3 492.2 157C512.7 155.7 533.3 152.3 553.8 149.7C574.3 147 594.7 145 615.2 145.3C635.7 145.7 656.3 148.3 676.8 146.7C697.3 145 717.7 139 738.2 138.3C758.7 137.7 779.3 142.3 789.7 144.7L800 147L800 201L789.7 201C779.3 201 758.7 201 738.2 201C717.7 201 697.3 201 676.8 201C656.3 201 635.7 201 615.2 201C594.7 201 574.3 201 553.8 201C533.3 201 512.7 201 492.2 201C471.7 201 451.3 201 430.8 201C410.3 201 389.7 201 369.2 201C348.7 201 328.3 201 307.8 201C287.3 201 266.7 201 246.2 201C225.7 201 205.3 201 184.8 201C164.3 201 143.7 201 123.2 201C102.7 201 82.3 201 61.8 201C41.3 201 20.7 201 10.3 201L0 201Z" fill="#84bae2"></path><path d="M0 171L10.3 173.3C20.7 175.7 41.3 180.3 61.8 177.8C82.3 175.3 102.7 165.7 123.2 162C143.7 158.3 164.3 160.7 184.8 162C205.3 163.3 225.7 163.7 246.2 165.8C266.7 168 287.3 172 307.8 174C328.3 176 348.7 176 369.2 174C389.7 172 410.3 168 430.8 164.5C451.3 161 471.7 158 492.2 158.3C512.7 158.7 533.3 162.3 553.8 164.3C574.3 166.3 594.7 166.7 615.2 166.8C635.7 167 656.3 167 676.8 168.2C697.3 169.3 717.7 171.7 738.2 171.3C758.7 171 779.3 168 789.7 166.5L800 165L800 201L789.7 201C779.3 201 758.7 201 738.2 201C717.7 201 697.3 201 676.8 201C656.3 201 635.7 201 615.2 201C594.7 201 574.3 201 553.8 201C533.3 201 512.7 201 492.2 201C471.7 201 451.3 201 430.8 201C410.3 201 389.7 201 369.2 201C348.7 201 328.3 201 307.8 201C287.3 201 266.7 201 246.2 201C225.7 201 205.3 201 184.8 201C164.3 201 143.7 201 123.2 201C102.7 201 82.3 201 61.8 201C41.3 201 20.7 201 10.3 201L0 201Z" fill="#5da2d4"></path></svg>